<svg width="95" height="80" viewBox="0 0 95 80" fill="none" xmlns="http://www.w3.org/2000/svg">
<path d="M77.1875 0H65.3125C62.0339 0 59.375 2.53545 59.375 5.66186C59.375 8.78827 62.0339 11.3237 65.3125 11.3237H77.1875C80.4661 11.3237 83.125 13.8592 83.125 16.9856V62.2805C83.125 65.4069 80.4661 67.9423 77.1875 67.9423H65.3125C62.0339 67.9423 59.375 70.4778 59.375 73.6042C59.375 76.7306 62.0339 79.2661 65.3125 79.2661H77.1875C87.0252 79.2661 95 71.6615 95 62.2805V16.9856C95 7.60459 87.0215 0 77.1875 0ZM63.5684 35.6343L39.8184 12.9869C37.4972 10.7735 33.7398 10.777 31.4224 12.9869C29.103 15.1986 29.103 18.7815 31.4224 20.9931L45.0508 33.9712H5.9375C2.65518 33.9712 0 36.5013 0 39.633C0 42.7647 2.65518 45.2949 5.9375 45.2949H45.0508L31.4354 58.2782C29.116 60.4899 29.116 64.0728 31.4354 66.2845C33.7547 68.4961 37.512 68.4961 39.8313 66.2845L63.5813 43.637C65.8877 41.4201 65.8877 37.846 63.5684 35.6343Z" fill="white" fill-opacity="1"/>
</svg>
