<svg width="110" height="80" viewBox="0 0 110 80" fill="none" xmlns="http://www.w3.org/2000/svg">
<path d="M38.5 39.633C50.6516 39.633 60.5 30.7605 60.5 19.8165C60.5 8.87253 50.6516 0 38.5 0C26.3484 0 16.5 8.87253 16.5 19.8165C16.5 30.7605 26.3484 39.633 38.5 39.633ZM47.2141 47.0642H29.7859C13.3392 47.0642 0 59.078 0 73.8939C0 76.8664 2.6675 79.2661 5.95719 79.2661H71.0462C74.3359 79.2661 77 76.8664 77 73.8939C77 59.078 63.6625 47.0642 47.2141 47.0642ZM105.875 30.9633H97.625V23.5321C97.625 21.4885 95.7859 19.8165 93.5 19.8165C91.2141 19.8165 89.375 21.4808 89.375 23.5321V30.9633H81.125C78.8562 30.9633 77 32.6353 77 34.6789C77 36.7225 78.8477 38.3945 81.125 38.3945H89.375V45.8257C89.375 47.8847 91.2312 49.5413 93.5 49.5413C95.7688 49.5413 97.625 47.877 97.625 45.8257V38.3945H105.875C108.161 38.3945 110 36.738 110 34.6789C110 32.6198 108.161 30.9633 105.875 30.9633Z" fill="white" fill-opacity="1"/>
</svg>
