<svg width="30" height="30" viewBox="0 0 30 30" fill="none" xmlns="http://www.w3.org/2000/svg">
<g clip-path="url(#clip0_554_14382)">
<path d="M15 0C12.0333 0 9.13319 0.879735 6.66645 2.52796C4.19972 4.17618 2.27713 6.51886 1.14181 9.25975C0.00649922 12.0006 -0.290551 15.0166 0.288228 17.9264C0.867006 20.8361 2.29562 23.5088 4.39341 25.6066C6.49119 27.7044 9.16394 29.133 12.0737 29.7118C14.9834 30.2906 17.9994 29.9935 20.7403 28.8582C23.4812 27.7229 25.8238 25.8003 27.4721 23.3336C29.1203 20.8668 30 17.9667 30 15C29.9957 11.0231 28.4139 7.2103 25.6018 4.39819C22.7897 1.58609 18.9769 0.00434263 15 0V0ZM15 28.5938C12.3114 28.5938 9.6832 27.7965 7.44772 26.3028C5.21224 24.8091 3.4699 22.686 2.44102 20.2021C1.41214 17.7182 1.14294 14.9849 1.66746 12.348C2.19197 9.71106 3.48665 7.28889 5.38777 5.38777C7.28889 3.48665 9.71107 2.19197 12.348 1.66745C14.9849 1.14293 17.7182 1.41213 20.2021 2.44101C22.686 3.46989 24.8091 5.21224 26.3028 7.44772C27.7965 9.6832 28.5938 12.3114 28.5938 15C28.5894 18.604 27.1558 22.0591 24.6074 24.6074C22.0591 27.1558 18.604 28.5894 15 28.5938Z" fill="#004A97"/>
<path d="M13.6238 8.40941C13.4905 8.28521 13.3142 8.2176 13.132 8.22081C12.9499 8.22403 12.7761 8.29782 12.6473 8.42664C12.5184 8.55547 12.4447 8.72927 12.4414 8.91143C12.4382 9.09358 12.5058 9.26988 12.63 9.40316L18.2269 15L12.63 20.5969C12.561 20.6613 12.5055 20.7389 12.4671 20.8252C12.4287 20.9114 12.408 21.0045 12.4064 21.0989C12.4047 21.1933 12.4221 21.2871 12.4574 21.3747C12.4928 21.4622 12.5454 21.5417 12.6122 21.6085C12.679 21.6753 12.7585 21.7279 12.846 21.7633C12.9336 21.7986 13.0274 21.816 13.1218 21.8143C13.2162 21.8127 13.3093 21.792 13.3955 21.7536C13.4818 21.7152 13.5594 21.6597 13.6238 21.5907L19.7175 15.4969C19.8492 15.3651 19.9232 15.1864 19.9232 15C19.9232 14.8137 19.8492 14.635 19.7175 14.5032L13.6238 8.40941Z" fill="#004A97"/>
</g>
<defs>
<clipPath id="clip0_554_14382">
<rect width="30" height="30" fill="white"/>
</clipPath>
</defs>
</svg>
