<svg width="35" height="35" viewBox="0 0 35 35" fill="none" xmlns="http://www.w3.org/2000/svg">
<g clip-path="url(#clip0_757_4240)">
<path fill-rule="evenodd" clip-rule="evenodd" d="M21.8423 24.1402C19.99 25.5112 25.7497 19.6213 24.1107 21.8602C24.1517 21.857 24.0757 21.9811 23.8209 22.2923C23.8209 22.2923 28.1981 26.6399 30.3467 28.8526C31.0927 29.6592 29.7468 31.2692 28.8324 30.4287C26.8867 28.5409 22.2825 23.8492 22.2754 23.8416L21.8423 24.1402Z" fill="#004A97"/>
<path d="M15.4102 26.3385C18.2266 26.3112 21.0145 25.1447 23.0194 23.1634C25.4005 20.8102 26.6266 17.3288 26.1989 14.0049C25.4661 8.30916 20.7838 4.44385 15.3402 4.44385C11.2042 4.44385 7.18462 7.03111 5.42149 10.7827C4.07181 13.6549 4.06907 17.1226 5.42149 19.9997C7.17204 23.725 11.1259 26.2986 15.2696 26.3385C15.3167 26.3385 15.3637 26.3385 15.4102 26.3385ZM15.2811 24.5136C11.0751 24.4731 7.15071 21.2203 6.37032 17.0499C5.82017 14.1099 6.85868 10.9281 9.02212 8.84018C11.5476 6.40166 15.5174 5.58518 18.8183 6.96713C21.7714 8.20361 23.9819 11.0747 24.3893 14.2378C24.7382 16.9492 23.7653 19.7908 21.8534 21.7481C20.1762 23.4653 17.8241 24.4901 15.3987 24.5136C15.3593 24.5136 15.3205 24.5136 15.2811 24.5136Z" fill="#004A97"/>
</g>
<defs>
<clipPath id="clip0_757_4240">
<rect width="35" height="35" fill="white"/>
</clipPath>
</defs>
</svg>
